<?xml version="1.0" standalone="no"?>
<!DOCTYPE svg PUBLIC "-//W3C//DTD SVG 20010904//EN"
 "http://www.w3.org/TR/2001/REC-SVG-20010904/DTD/svg10.dtd">
<svg version="1.0" xmlns="http://www.w3.org/2000/svg"
 width="700.000000pt" height="700.000000pt" viewBox="0 0 700.000000 700.000000"
 preserveAspectRatio="xMidYMid meet">
<metadata>
Created by potrace 1.11, written by Peter Selinger 2001-2013
</metadata>
<g transform="translate(0.000000,700.000000) scale(0.100000,-0.100000)"
fill="#000000" stroke="none">
<path d="M2885 6753 c1 -137 -1 -254 -3 -260 -2 -7 -11 -13 -20 -13 -33 0
-201 -64 -329 -125 l-133 -64 -176 176 -176 176 -435 -435 -435 -435 176 -176
176 -175 -60 -124 c-62 -129 -143 -342 -133 -352 9 -8 16 -8 -257 -10 l-245
-1 0 -400 c-1 -220 -4 -405 -7 -410 -4 -7 -151 -10 -417 -10 l-411 0 2 -205 3
-205 306 0 306 0 34 -39 c19 -22 41 -47 49 -56 13 -15 68 -74 286 -309 34 -36
73 -79 89 -96 85 -93 205 -223 235 -255 31 -33 184 -199 248 -269 41 -45 134
-146 297 -322 33 -35 106 -114 162 -174 56 -61 110 -120 121 -133 11 -13 69
-75 129 -140 59 -64 140 -150 178 -192 249 -269 306 -331 360 -388 33 -35 64
-72 70 -81 6 -10 10 -251 10 -631 l0 -615 615 0 615 0 1 617 1 617 33 38 c18
21 56 63 84 93 28 31 76 82 106 115 30 33 108 117 173 186 64 70 125 135 135
146 19 23 196 215 227 247 11 12 65 70 120 130 55 61 111 121 125 136 21 22
108 117 243 264 16 17 54 58 85 91 144 156 174 187 267 289 55 60 114 124 130
141 17 18 68 74 115 125 47 51 99 107 115 125 17 17 71 76 121 131 51 54 114
123 141 153 l50 54 306 0 307 0 0 207 0 207 -397 1 c-219 0 -406 1 -415 1 -17
1 -18 29 -20 409 l-3 407 -245 0 -245 0 -46 130 c-25 72 -71 180 -101 242
l-56 111 176 177 176 176 -436 436 -437 437 -177 -176 -177 -175 -106 52
c-119 60 -205 95 -303 125 -48 15 -68 26 -69 38 0 9 -1 123 -2 252 l-2 235
-615 3 -615 2 0 -247z m730 -1418 c424 -38 796 -377 886 -810 27 -126 24 -373
-4 -402 -3 -3 -455 -6 -1003 -7 l-997 -1 -4 25 c-30 193 -19 342 37 505 121
355 401 601 770 679 110 23 156 25 315 11z"/>
</g>
</svg>
