<svg height="512pt" viewBox="0 0 512 512" width="512pt" xmlns="http://www.w3.org/2000/svg"><path d="m211 391h90v121h-90zm0 0" fill="#ff7816"/><path d="m256 391h45v121h-45zm0 0" fill="#ff7816"/><path d="m451 151v75h-126.300781c3.898437-9.300781 6.300781-19.199219 6.300781-30 0-41.398438-33.601562-75-75-75s-75 33.601562-75 75c0 10.800781 2.402344 20.699219 6.300781 30h-126.300781v-75h36.300781c3.300781-12.300781 8.398438-24 14.699219-35.398438l-25.800781-25.800781 63.601562-63.601562 25.800781 25.800781c11.398438-6.300781 23.097657-11.398438 35.398438-14.699219v-37.300781h90v37.300781c12.300781 3.300781 24 8.398438 35.398438 14.699219l25.800781-25.800781 63.601562 63.601562-25.800781 25.800781c6.300781 11.398438 11.398438 23.097657 14.699219 35.398438zm0 0" fill="#6e6e6e"/><path d="m451 151v75h-126.300781c3.898437-9.300781 6.300781-19.199219 6.300781-30 0-41.398438-33.601562-75-75-75v-121h45v37.300781c12.300781 3.300781 24 8.398438 35.398438 14.699219l25.800781-25.800781 63.601562 63.601562-25.800781 25.800781c6.300781 11.398438 11.398438 23.097657 14.699219 35.398438zm0 0" fill="#5a5a5a"/><path d="m481 226-180 195h-90l-180-195zm0 0" fill="#fdbf00"/><path d="m481 226-180 195h-45v-195zm0 0" fill="#ff9f00"/><g fill="#ff7816"><path d="m0 211h512v30h-512zm0 0"/><path d="m256 211h256v30h-256zm0 0"/></g></svg>